<?xml version="1.0" standalone="no"?>
<!DOCTYPE svg PUBLIC "-//W3C//DTD SVG 20010904//EN"
 "http://www.w3.org/TR/2001/REC-SVG-20010904/DTD/svg10.dtd">
<svg version="1.0" xmlns="http://www.w3.org/2000/svg"
 width="700.000000pt" height="700.000000pt" viewBox="0 0 700.000000 700.000000"
 preserveAspectRatio="xMidYMid meet">
<metadata>
Created by potrace 1.11, written by Peter Selinger 2001-2013
</metadata>
<g transform="translate(0.000000,700.000000) scale(0.100000,-0.100000)"
fill="#000000" stroke="none">
<path d="M4076 6234 c-195 -42 -363 -187 -445 -383 -30 -71 -32 -86 -35 -211
-3 -129 6 -179 46 -267 71 -157 163 -255 303 -323 82 -40 106 -45 260 -55 107
-7 122 -11 134 -34 10 -19 23 -222 25 -405 l1 -108 -62 -19 c-133 -41 -244
-163 -261 -285 -14 -110 23 -242 88 -313 67 -72 65 -61 19 -152 -90 -181 -204
-344 -341 -493 l-74 -79 -57 33 c-65 36 -82 63 -91 135 -3 28 -10 77 -16 110
-6 33 -13 76 -16 95 -25 157 -98 372 -198 582 -40 86 -42 98 -21 158 20 57 19
136 -4 186 -33 72 -110 129 -181 132 -58 4 -98 10 -113 19 -9 4 -57 47 -109
95 -178 166 -319 266 -528 376 l-115 61 -2 43 c-4 82 -14 125 -42 184 -32 67
-104 151 -165 193 -150 103 -367 81 -511 -51 -102 -93 -136 -182 -132 -347 2
-97 5 -112 34 -171 74 -150 218 -245 379 -249 128 -4 254 57 343 166 47 58 64
63 125 38 98 -41 308 -182 431 -289 130 -114 174 -163 170 -188 -3 -13 -6 -62
-7 -109 -2 -79 0 -90 25 -127 46 -70 132 -122 200 -122 41 0 54 -14 100 -105
91 -184 172 -465 194 -677 8 -83 0 -102 -52 -127 -66 -31 -91 -27 -180 30
-195 124 -391 205 -660 274 -189 48 -204 54 -250 97 -37 37 -69 50 -120 53
-39 2 -106 -23 -120 -45 -12 -19 -80 -48 -130 -54 -27 -4 -57 -9 -65 -11 -8
-2 -37 -6 -63 -10 -41 -5 -80 -12 -173 -31 -139 -28 -342 -106 -522 -200
l-142 -74 -43 19 c-73 33 -105 40 -169 37 -142 -5 -256 -98 -291 -236 -51
-199 101 -402 300 -402 126 0 236 80 289 209 20 50 23 71 20 155 l-3 97 146
73 c80 39 155 75 166 80 106 41 244 84 299 93 157 27 210 35 262 41 60 6 63 5
100 -29 54 -48 79 -59 134 -60 36 0 62 8 106 32 52 30 63 33 117 27 76 -7 266
-58 365 -97 87 -35 308 -144 368 -181 63 -40 68 -50 59 -121 -14 -110 -13
-161 5 -220 30 -95 88 -159 190 -210 57 -28 74 -32 145 -31 104 0 157 25 248
116 64 63 71 67 105 63 131 -16 170 -18 287 -18 117 -1 254 7 316 18 13 2 45
6 70 9 26 3 79 13 119 21 l72 15 56 -44 c72 -56 105 -72 167 -83 189 -33 346
104 359 314 2 38 5 73 5 79 1 6 43 43 94 81 89 68 252 222 369 351 l57 62 53
-5 c29 -3 67 -8 83 -10 66 -9 155 -6 192 6 147 48 307 198 381 357 26 54 27
64 27 222 l0 165 -37 78 c-67 140 -140 217 -265 281 -229 115 -536 32 -685
-187 -63 -93 -89 -180 -92 -312 -5 -160 40 -293 136 -407 l56 -65 -40 -49
c-101 -122 -362 -357 -419 -377 -10 -3 -37 9 -65 29 -76 54 -157 70 -252 49
-124 -29 -212 -126 -246 -274 -17 -75 -19 -77 -58 -86 -18 -4 -35 -9 -38 -9
-5 -2 -69 -13 -125 -22 -113 -19 -307 -23 -472 -10 -110 8 -121 13 -132 55
-10 37 -14 73 -12 103 1 9 47 70 104 136 152 174 272 347 336 482 47 100 63
113 144 124 207 30 344 225 306 431 -14 79 -48 134 -131 215 l-76 75 2 130 c3
117 -4 238 -18 343 -20 142 -19 148 10 167 47 30 150 140 188 199 37 57 78
149 90 199 8 32 9 270 2 305 -23 111 -108 250 -202 328 -136 115 -335 164
-508 128z"/>
<path d="M5068 1835 c-2 -1 -84 -5 -183 -9 -100 -4 -192 -8 -205 -10 -14 -3
-48 -7 -77 -10 -135 -15 -350 -72 -493 -131 -212 -87 -342 -177 -532 -368
l-67 -68 -44 43 c-191 189 -262 245 -409 323 -216 113 -431 179 -688 211 -30
4 -375 9 -767 11 l-712 5 -7 -26 c-11 -44 5 -126 37 -194 37 -77 140 -185 214
-224 55 -29 8 -27 735 -43 537 -13 726 -43 942 -151 235 -117 332 -226 484
-539 l75 -155 137 0 137 0 79 158 c158 316 251 420 481 535 229 114 393 138
1020 152 518 11 599 17 673 52 58 27 163 139 200 215 34 69 52 180 34 206 -7
10 -121 13 -535 16 -289 2 -527 2 -529 1z"/>
</g>
</svg>
